<svg width="20" height="20" viewBox="0 0 20 20" fill="none" xmlns="http://www.w3.org/2000/svg">
<g id="calendar-alt">
<g id="Vector">
<path d="M1.25 18.125C1.25 19.1602 2.08984 20 3.125 20H16.875C17.9102 20 18.75 19.1602 18.75 18.125V7.5H1.25V18.125ZM13.75 10.4688C13.75 10.2109 13.9609 10 14.2188 10H15.7812C16.0391 10 16.25 10.2109 16.25 10.4688V12.0312C16.25 12.2891 16.0391 12.5 15.7812 12.5H14.2188C13.9609 12.5 13.75 12.2891 13.75 12.0312V10.4688ZM13.75 15.4688C13.75 15.2109 13.9609 15 14.2188 15H15.7812C16.0391 15 16.25 15.2109 16.25 15.4688V17.0312C16.25 17.2891 16.0391 17.5 15.7812 17.5H14.2188C13.9609 17.5 13.75 17.2891 13.75 17.0312V15.4688ZM8.75 10.4688C8.75 10.2109 8.96094 10 9.21875 10H10.7812C11.0391 10 11.25 10.2109 11.25 10.4688V12.0312C11.25 12.2891 11.0391 12.5 10.7812 12.5H9.21875C8.96094 12.5 8.75 12.2891 8.75 12.0312V10.4688ZM8.75 15.4688C8.75 15.2109 8.96094 15 9.21875 15H10.7812C11.0391 15 11.25 15.2109 11.25 15.4688V17.0312C11.25 17.2891 11.0391 17.5 10.7812 17.5H9.21875C8.96094 17.5 8.75 17.2891 8.75 17.0312V15.4688ZM3.75 10.4688C3.75 10.2109 3.96094 10 4.21875 10H5.78125C6.03906 10 6.25 10.2109 6.25 10.4688V12.0312C6.25 12.2891 6.03906 12.5 5.78125 12.5H4.21875C3.96094 12.5 3.75 12.2891 3.75 12.0312V10.4688ZM3.75 15.4688C3.75 15.2109 3.96094 15 4.21875 15H5.78125C6.03906 15 6.25 15.2109 6.25 15.4688V17.0312C6.25 17.2891 6.03906 17.5 5.78125 17.5H4.21875C3.96094 17.5 3.75 17.2891 3.75 17.0312V15.4688ZM16.875 2.5H15V0.625C15 0.28125 14.7188 0 14.375 0H13.125C12.7812 0 12.5 0.28125 12.5 0.625V2.5H7.5V0.625C7.5 0.28125 7.21875 0 6.875 0H5.625C5.28125 0 5 0.28125 5 0.625V2.5H3.125C2.08984 2.5 1.25 3.33984 1.25 4.375V6.25H18.75V4.375C18.75 3.33984 17.9102 2.5 16.875 2.5Z" fill="#178BE6"/>
<path d="M1.25 18.125C1.25 19.1602 2.08984 20 3.125 20H16.875C17.9102 20 18.75 19.1602 18.75 18.125V7.5H1.25V18.125ZM13.75 10.4688C13.75 10.2109 13.9609 10 14.2188 10H15.7812C16.0391 10 16.25 10.2109 16.25 10.4688V12.0312C16.25 12.2891 16.0391 12.5 15.7812 12.5H14.2188C13.9609 12.5 13.75 12.2891 13.75 12.0312V10.4688ZM13.75 15.4688C13.75 15.2109 13.9609 15 14.2188 15H15.7812C16.0391 15 16.25 15.2109 16.25 15.4688V17.0312C16.25 17.2891 16.0391 17.5 15.7812 17.5H14.2188C13.9609 17.5 13.75 17.2891 13.75 17.0312V15.4688ZM8.75 10.4688C8.75 10.2109 8.96094 10 9.21875 10H10.7812C11.0391 10 11.25 10.2109 11.25 10.4688V12.0312C11.25 12.2891 11.0391 12.5 10.7812 12.5H9.21875C8.96094 12.5 8.75 12.2891 8.75 12.0312V10.4688ZM8.75 15.4688C8.75 15.2109 8.96094 15 9.21875 15H10.7812C11.0391 15 11.25 15.2109 11.25 15.4688V17.0312C11.25 17.2891 11.0391 17.5 10.7812 17.5H9.21875C8.96094 17.5 8.75 17.2891 8.75 17.0312V15.4688ZM3.75 10.4688C3.75 10.2109 3.96094 10 4.21875 10H5.78125C6.03906 10 6.25 10.2109 6.25 10.4688V12.0312C6.25 12.2891 6.03906 12.5 5.78125 12.5H4.21875C3.96094 12.5 3.75 12.2891 3.75 12.0312V10.4688ZM3.75 15.4688C3.75 15.2109 3.96094 15 4.21875 15H5.78125C6.03906 15 6.25 15.2109 6.25 15.4688V17.0312C6.25 17.2891 6.03906 17.5 5.78125 17.5H4.21875C3.96094 17.5 3.75 17.2891 3.75 17.0312V15.4688ZM16.875 2.5H15V0.625C15 0.28125 14.7188 0 14.375 0H13.125C12.7812 0 12.5 0.28125 12.5 0.625V2.5H7.5V0.625C7.5 0.28125 7.21875 0 6.875 0H5.625C5.28125 0 5 0.28125 5 0.625V2.5H3.125C2.08984 2.5 1.25 3.33984 1.25 4.375V6.25H18.75V4.375C18.75 3.33984 17.9102 2.5 16.875 2.5Z" fill="black" fill-opacity="0.2"/>
</g>
</g>
</svg>
