<svg width="24" height="25" viewBox="0 0 24 25" fill="none" xmlns="http://www.w3.org/2000/svg">
<g id="eye-disable">
<path id="Vector" d="M4.53033 3.6684C4.23744 3.37551 3.76256 3.37551 3.46967 3.6684C3.17678 3.96129 3.17678 4.43617 3.46967 4.72906L4.53033 3.6684ZM19.4697 20.729C19.7626 21.0219 20.2374 21.0219 20.5303 20.729C20.8232 20.4361 20.8232 19.9613 20.5303 19.6684L19.4697 20.729ZM14.5002 14.9937C14.8088 14.7174 14.8351 14.2433 14.5589 13.9346C14.2826 13.626 13.8085 13.5997 13.4998 13.876L14.5002 14.9937ZM10.3227 10.6989C10.599 10.3902 10.5727 9.91612 10.2641 9.63988C9.95543 9.36363 9.48129 9.3899 9.20504 9.69854L10.3227 10.6989ZM19.1153 15.2408C18.8029 15.5127 18.7701 15.9865 19.0421 16.2989C19.3141 16.6113 19.7878 16.644 20.1002 16.3721L19.1153 15.2408ZM9.18831 4.89572C8.79307 5.01965 8.57313 5.44052 8.69705 5.83576C8.82098 6.231 9.24185 6.45094 9.63709 6.32702L9.18831 4.89572ZM6.90354 7.63429C7.25269 7.41142 7.35505 6.94771 7.13218 6.59857C6.90931 6.24943 6.4456 6.14706 6.09646 6.36993L6.90354 7.63429ZM17.5515 18.2458C17.9064 18.0322 18.021 17.5714 17.8075 17.2164C17.5939 16.8615 17.1331 16.7469 16.7782 16.9605L17.5515 18.2458ZM3.46967 4.72906L19.4697 20.729L20.5303 19.6684L4.53033 3.6684L3.46967 4.72906ZM8.25 12.1987C8.25 14.2698 9.92893 15.9487 12 15.9487V14.4487C10.7574 14.4487 9.75 13.4413 9.75 12.1987H8.25ZM12 15.9487C12.96 15.9487 13.8372 15.587 14.5002 14.9937L13.4998 13.876C13.1012 14.2327 12.5767 14.4487 12 14.4487V15.9487ZM9.20504 9.69854C8.61169 10.3615 8.25 11.2387 8.25 12.1987H9.75C9.75 11.622 9.96602 11.0975 10.3227 10.6989L9.20504 9.69854ZM2.32608 14.8623C4.2977 16.9367 7.84898 19.9487 12 19.9487V18.4487C8.51999 18.4487 5.35328 15.87 3.41334 13.8289L2.32608 14.8623ZM21.6739 9.53514C19.7023 7.46071 16.151 4.44873 12 4.44873V5.94873C15.48 5.94873 18.6467 8.52742 20.5867 10.5685L21.6739 9.53514ZM21.6739 14.8623C23.1087 13.3527 23.1087 11.0447 21.6739 9.53514L20.5867 10.5685C21.4711 11.4991 21.4711 12.8983 20.5867 13.8289L21.6739 14.8623ZM3.41334 13.8289C2.52889 12.8983 2.52889 11.4991 3.41334 10.5685L2.32608 9.53514C0.891307 11.0447 0.891306 13.3527 2.32608 14.8623L3.41334 13.8289ZM20.1002 16.3721C20.6921 15.8568 21.2202 15.3396 21.6739 14.8623L20.5867 13.8289C20.1602 14.2776 19.6662 14.7611 19.1153 15.2408L20.1002 16.3721ZM12 4.44873C11.0225 4.44873 10.0801 4.61609 9.18831 4.89572L9.63709 6.32702C10.4042 6.08649 11.1948 5.94873 12 5.94873V4.44873ZM6.09646 6.36993C4.57051 7.344 3.28015 8.53132 2.32608 9.53514L3.41334 10.5685C4.31512 9.61971 5.51237 8.52233 6.90354 7.63429L6.09646 6.36993ZM12 19.9487C14.0476 19.9487 15.9403 19.2152 17.5515 18.2458L16.7782 16.9605C15.3131 17.842 13.6886 18.4487 12 18.4487V19.9487Z" fill="#9794AA"/>
</g>
</svg>
